<?xml version="1.0" encoding="utf-8"?>
<!-- Generator: Adobe Illustrator 27.1.1, SVG Export Plug-In . SVG Version: 6.00 Build 0)  -->
<svg version="1.1" id="Layer_1" xmlns="http://www.w3.org/2000/svg" xmlns:xlink="http://www.w3.org/1999/xlink" x="0px" y="0px"
	 viewBox="0 0 1200 800" style="enable-background:new 0 0 1200 800;" xml:space="preserve">
<style type="text/css">
	.st0{fill:#CEDDEF;stroke:#FFFFFF;}
	.st1{font-family:'ArialMT';}
	.st2{font-size:22px;}
	.st3{fill:#E0CFEE;stroke:#FFFFFF;}
	.st4{font-size:20.65px;}
	.st5{font-size:18.85px;}
	.st6{font-size:16.15px;}
	.st7{font-size:13.45px;}
	.st8{font-size:13px;}
	.st9{font-size:12.1px;}
	.st10{font-size:11.65px;}
	.st11{fill:#F1DCD0;stroke:#FFFFFF;}
	.st12{font-size:9.4px;}
	.st13{font-size:8.95px;}
	.st14{font-size:8.5px;}
	.st15{font-size:8.05px;}
	.st16{font-size:7.6px;}
	.st17{font-size:7.15px;}
	.st18{font-size:6.7px;}
	.st19{font-size:6.25px;}
	.st20{font-size:5.8px;}
	.st21{font-size:5.35px;}
	.st22{font-size:4.9px;}
	.st23{font-size:4.45px;}
	.st24{font-size:4px;}
</style>
<g>
	<rect y="0" class="st0" width="345.8" height="474"/>
	<text transform="matrix(1 0 0 1 12 245.775)" class="st1 st2">Kartverket</text>
	<text transform="matrix(1 0 0 1 4 26)" class="st1 st2">[282]</text>
</g>
<g>
	<rect y="474" class="st3" width="345.8" height="326"/>
	<text transform="matrix(1 0 0 1 12 632.575)" class="st1 st2">Stavanger kommune</text>
	<text transform="matrix(1 0 0 1 4 499.95)" class="st1 st2">[194]</text>
</g>
<g>
	<rect x="345.8" y="0" class="st0" width="252.1" height="249"/>
	<text transform="matrix(1 0 0 1 357.76 130.3629)" class="st1 st2">Landbruksdirektoratet</text>
	<text transform="matrix(1 0 0 1 349.76 26)" class="st1 st2">[108]</text>
</g>
<g>
	<rect x="345.8" y="249" class="st0" width="252.1" height="196"/>
	<text transform="matrix(1 0 0 1 357.76 342.575)" class="st1 st2">Statens vegvesen</text>
	<text transform="matrix(1 0 0 1 349.76 274.99)" class="st1 st2">[85]</text>
</g>
<g>
	<rect x="345.8" y="445" class="st0" width="252.1" height="186.7"/>
	<text transform="matrix(1 0 0 1 357.76 533.93)" class="st1 st2">Norsk institutt for</text>
	<text transform="matrix(1 0 0 1 357.76 560.33)" class="st1 st2">bioøkonomi</text>
	<text transform="matrix(1 0 0 1 349.76 470.96)" class="st1 st2">[81]</text>
</g>
<g>
	<rect x="345.8" y="631.7" class="st0" width="252.1" height="168.3"/>
	<text transform="matrix(1 0 0 1 357.76 724.65)" class="st1 st2">Nasjonalbiblioteket</text>
	<text transform="matrix(1 0 0 1 349.76 657.7)" class="st1 st2">[73]</text>
</g>
<g>
	<rect x="597.8" y="0" class="st0" width="232.9" height="174.7"/>
	<text transform="matrix(1 0 0 1 609.82 82.935)" class="st1 st2">Statistisk</text>
	<text transform="matrix(1 0 0 1 609.82 109.335)" class="st1 st2">sentralbyrå</text>
	<text transform="matrix(1 0 0 1 601.82 26)" class="st1 st2">[70]</text>
</g>
<g>
	<rect x="830.7" y="0" class="st0" width="206.3" height="174.7"/>
	<text transform="matrix(1 0 0 1 842.71 82.935)" class="st1 st2">Digitaliserings-</text>
	<text transform="matrix(1 0 0 1 842.71 109.335)" class="st1 st2">direktoratet</text>
	<text transform="matrix(1 0 0 1 834.71 26)" class="st1 st2">[62]</text>
</g>
<g>
	<rect x="1037" y="0" class="st0" width="163" height="174.7"/>
	<text transform="matrix(1 0 0 1 1048.98 93.2029)" class="st1 st2">NVE</text>
	<text transform="matrix(1 0 0 1 1040.98 26)" class="st1 st2">[49]</text>
</g>
<g>
	<rect x="597.8" y="174.7" class="st0" width="184.2" height="129.3"/>
	<text transform="matrix(1 0 0 1 609.82 235.195)" class="st1 st4">Miljø-</text>
	<text transform="matrix(1 0 0 1 609.82 259.975)" class="st1 st4">direktoratet</text>
	<text transform="matrix(1 0 0 1 601.82 199.32)" class="st1 st4">[41]</text>
</g>
<g>
	<rect x="782.1" y="174.7" class="st0" width="166.3" height="129.3"/>
	<text transform="matrix(1 0 0 1 794.07 235.555)" class="st1 st5">Arbeids- og</text>
	<text transform="matrix(1 0 0 1 794.07 258.175)" class="st1 st5">velferdsetaten</text>
	<text transform="matrix(1 0 0 1 786.07 197.52)" class="st1 st5">[37]</text>
</g>
<g>
	<rect x="948.3" y="174.7" class="st0" width="139.3" height="129.3"/>
	<text transform="matrix(1 0 0 1 960.34 236.095)" class="st1 st6">Norges </text>
	<text transform="matrix(1 0 0 1 960.34 275.7689)" class="st1 st6">undersøkelse</text>
	<text transform="matrix(1 0 0 1 960.34 255.475)" class="st1 st6">geologiske</text>
	<text transform="matrix(1 0 0 1 952.34 194.82)" class="st1 st6">[31]</text>
</g>
<g>
	<rect x="1087.7" y="174.7" class="st0" width="112.3" height="129.3"/>
	<text transform="matrix(1 0 0 1 1099.65 244.705)" class="st1 st7">Tolletaten</text>
	<text transform="matrix(1 0 0 1 1091.65 192.12)" class="st1 st7">[25]</text>
</g>
<g>
	<rect x="597.8" y="304" class="st0" width="107.8" height="134.8"/>
	<text transform="matrix(1 0 0 1 609.82 368.685)" class="st1 st7">Olje-</text>
	<text transform="matrix(1 0 0 1 609.82 384.825)" class="st1 st7">direktoratet</text>
	<text transform="matrix(1 0 0 1 601.82 321.43)" class="st1 st7">[25]</text>
</g>
<g>
	<rect x="597.8" y="438.8" class="st0" width="107.8" height="129.4"/>
	<text transform="matrix(1 0 0 1 609.82 500.87)" class="st1 st8">Registerenheten</text>
	<text transform="matrix(1 0 0 1 609.82 516.47)" class="st1 st8">i Brønnøysund</text>
	<text transform="matrix(1 0 0 1 601.82 455.77)" class="st1 st8">[24]</text>
</g>
<g>
	<rect x="597.8" y="568.2" class="st0" width="107.8" height="118.6"/>
	<text transform="matrix(1 0 0 1 609.82 625.045)" class="st1 st9">Norsk</text>
	<text transform="matrix(1 0 0 1 609.82 639.565)" class="st1 st9">Polarinstitutt</text>
	<text transform="matrix(1 0 0 1 601.82 584.26)" class="st1 st9">[22]</text>
</g>
<g>
	<rect x="597.8" y="686.8" class="st0" width="107.8" height="113.2"/>
	<text transform="matrix(1 0 0 1 609.82 748.05)" class="st1 st10">Mattilsynet</text>
	<text transform="matrix(1 0 0 1 601.82 702.43)" class="st1 st10">[21]</text>
</g>
<g>
	<rect x="705.6" y="304" class="st11" width="128.2" height="95.2"/>
	<text transform="matrix(1 0 0 1 717.6 356.245)" class="st1 st10">Geovekst</text>
	<text transform="matrix(1 0 0 1 709.6 319.63)" class="st1 st10">[21]</text>
</g>
<g>
	<rect x="833.8" y="304" class="st3" width="97.7" height="95.2"/>
	<text transform="matrix(1 0 0 1 845.78 355.345)" class="st1 st12">Oslo kommune</text>
	<text transform="matrix(1 0 0 1 837.78 317.38)" class="st1 st12">[16]</text>
</g>
<g>
	<rect x="931.4" y="304" class="st0" width="91.5" height="95.2"/>
	<text transform="matrix(1 0 0 1 943.44 355.165)" class="st1 st13">Kystverket</text>
	<text transform="matrix(1 0 0 1 935.44 316.93)" class="st1 st13">[15]</text>
</g>
<g>
	<rect x="1023" y="304" class="st0" width="91.6" height="95.2"/>
	<text transform="matrix(1 0 0 1 1034.99 355.165)" class="st1 st13">Arbeidstilsynet</text>
	<text transform="matrix(1 0 0 1 1026.99 316.93)" class="st1 st13">[15]</text>
</g>
<g>
	<rect x="1114.6" y="304" class="st0" width="85.4" height="95.2"/>
	<text transform="matrix(1 0 0 1 1126.55 349.885)" class="st1 st14">Fiskeri-</text>
	<text transform="matrix(1 0 0 1 1126.55 360.085)" class="st1 st14">direktoratet</text>
	<text transform="matrix(1 0 0 1 1118.55 316.48)" class="st1 st14">[14]</text>
</g>
<g>
	<rect x="705.6" y="399.2" class="st0" width="82.6" height="91.4"/>
	<text transform="matrix(1 0 0 1 717.6 443.285)" class="st1 st15">Meteorologisk</text>
	<text transform="matrix(1 0 0 1 717.6 452.945)" class="st1 st15">institutt</text>
	<text transform="matrix(1 0 0 1 709.6 411.24)" class="st1 st15">[13]</text>
</g>
<g>
	<rect x="705.6" y="490.6" class="st0" width="82.6" height="84.4"/>
	<text transform="matrix(1 0 0 1 717.6 535.83)" class="st1 st16">Artsdatabanken</text>
	<text transform="matrix(1 0 0 1 709.6 502.2)" class="st1 st16">[12]</text>
</g>
<g>
	<rect x="705.6" y="575" class="st11" width="82.6" height="77.3"/>
	<text transform="matrix(1 0 0 1 717.6 612.225)" class="st1 st17">Direktoratet for internasjonalisering og kvalitetsutvikling i høyere utdanning</text>
	<text transform="matrix(1 0 0 1 717.6 620.805)" class="st1 st17">(diku)</text>
	<text transform="matrix(1 0 0 1 709.6 586.13)" class="st1 st17">[11]</text>
</g>
<g>
	<rect x="705.6" y="652.3" class="st3" width="82.6" height="77.3"/>
	<text transform="matrix(1 0 0 1 717.6 689.575)" class="st1 st17">Fredrikstad</text>
	<text transform="matrix(1 0 0 1 717.6 698.155)" class="st1 st17">kommune</text>
	<text transform="matrix(1 0 0 1 709.6 663.48)" class="st1 st17">[11]</text>
</g>
<g>
	<rect x="705.6" y="729.7" class="st3" width="82.6" height="70.3"/>
	<text transform="matrix(1 0 0 1 717.6 763.5)" class="st1 st18">Bergen kommune</text>
	<text transform="matrix(1 0 0 1 709.6 740.38)" class="st1 st18">[10]</text>
</g>
<g>
	<rect x="788.2" y="399.2" class="st0" width="68.1" height="85.3"/>
	<text transform="matrix(1 0 0 1 800.24 440.49)" class="st1 st18">Direktoratet for samfunnssikkerhet og</text>
	<text transform="matrix(1 0 0 1 800.24 448.53)" class="st1 st18">beredskap</text>
	<text transform="matrix(1 0 0 1 792.24 409.89)" class="st1 st18">[10]</text>
</g>
<g>
	<rect x="788.2" y="484.5" class="st0" width="68.1" height="85.3"/>
	<text transform="matrix(1 0 0 1 798.24 525.77)" class="st1 st18">Statens lånekasse</text>
	<text transform="matrix(1 0 0 1 798.24 533.81)" class="st1 st18">for utdanning</text>
	<text transform="matrix(1 0 0 1 792.24 495.17)" class="st1 st18">[10]</text>
</g>
<g>
	<rect x="788.2" y="569.8" class="st0" width="68.1" height="76.8"/>
	<text transform="matrix(1 0 0 1 797.24 606.875)" class="st1 st19">Direktoratet for høyere utdanning og</text>
	<text transform="matrix(1 0 0 1 797.24 614.375)" class="st1 st19">kompetanse</text>
	<text transform="matrix(1 0 0 1 792.24 580)" class="st1 st19">[9]</text>
</g>
<g>
	<rect x="788.2" y="646.5" class="st0" width="68.1" height="76.8"/>
	<text transform="matrix(1 0 0 1 800.24 687.375)" class="st1 st19">Folkehelseinstituttet</text>
	<text transform="matrix(1 0 0 1 792.24 656.75)" class="st1 st19">[9]</text>
</g>
<g>
	<rect x="788.2" y="723.2" class="st0" width="68.1" height="76.8"/>
	<text transform="matrix(1 0 0 1 800.24 764.125)" class="st1 st19">Riksantikvaren</text>
	<text transform="matrix(1 0 0 1 792.24 733.5)" class="st1 st19">[9]</text>
</g>
<g>
	<rect x="856.4" y="399.2" class="st3" width="73.6" height="71"/>
	<text transform="matrix(1 0 0 1 868.39 437.205)" class="st1 st19">Aure kommune</text>
	<text transform="matrix(1 0 0 1 860.39 409.44)" class="st1 st19">[9]</text>
</g>
<g>
	<rect x="930" y="399.2" class="st11" width="73.6" height="71"/>
	<text transform="matrix(1 0 0 1 942.02 437.205)" class="st1 st19">Avinor as</text>
	<text transform="matrix(1 0 0 1 934.02 409.44)" class="st1 st19">[9]</text>
</g>
<g>
	<rect x="1003.7" y="399.2" class="st0" width="65.4" height="71"/>
	<text transform="matrix(1 0 0 1 1015.65 433.545)" class="st1 st20">Utdannings-</text>
	<text transform="matrix(1 0 0 1 1015.65 440.505)" class="st1 st20">direktoratet</text>
	<text transform="matrix(1 0 0 1 1007.65 408.99)" class="st1 st20">[8]</text>
</g>
<g>
	<rect x="1069.1" y="399.2" class="st0" width="65.4" height="71"/>
	<text transform="matrix(1 0 0 1 1081.1 437.025)" class="st1 st20">Skatteetaten</text>
	<text transform="matrix(1 0 0 1 1073.1 408.99)" class="st1 st20">[8]</text>
</g>
<g>
	<rect x="1134.6" y="399.2" class="st3" width="65.4" height="71"/>
	<text transform="matrix(1 0 0 1 1146.55 433.545)" class="st1 st20">Gjesdal</text>
	<text transform="matrix(1 0 0 1 1146.55 440.505)" class="st1 st20">kommune</text>
	<text transform="matrix(1 0 0 1 1138.55 408.99)" class="st1 st20">[8]</text>
</g>
<g>
	<rect x="856.4" y="470.2" class="st0" width="68.7" height="67.6"/>
	<text transform="matrix(1 0 0 1 868.39 502.885)" class="st1 st20">Kommunal- og</text>
	<text transform="matrix(1 0 0 1 868.39 509.845)" class="st1 st20">distriktsdepartementet</text>
	<text transform="matrix(1 0 0 1 860.39 480.02)" class="st1 st20">[8]</text>
</g>
<g>
	<rect x="856.4" y="537.9" class="st0" width="68.7" height="59.2"/>
	<text transform="matrix(1 0 0 1 868.39 566.395)" class="st1 st21">Olje- og</text>
	<text transform="matrix(1 0 0 1 868.39 572.815)" class="st1 st21">energidepartementet</text>
	<text transform="matrix(1 0 0 1 860.39 547.22)" class="st1 st21">[7]</text>
</g>
<g>
	<rect x="856.4" y="597.1" class="st0" width="68.7" height="50.7"/>
	<text transform="matrix(1 0 0 1 868.39 624.39)" class="st1 st22">Arkivverket</text>
	<text transform="matrix(1 0 0 1 860.39 605.96)" class="st1 st22">[6]</text>
</g>
<g>
	<rect x="856.4" y="647.8" class="st0" width="68.7" height="50.7"/>
	<text transform="matrix(1 0 0 1 868.39 675.12)" class="st1 st22">Finansdepartementet</text>
	<text transform="matrix(1 0 0 1 860.39 656.69)" class="st1 st22">[6]</text>
</g>
<g>
	<rect x="856.4" y="698.5" class="st11" width="68.7" height="50.7"/>
	<text transform="matrix(1 0 0 1 868.39 725.86)" class="st1 st22">Geonorge</text>
	<text transform="matrix(1 0 0 1 860.39 707.43)" class="st1 st22">[6]</text>
</g>
<g>
	<rect x="856.4" y="749.3" class="st0" width="68.7" height="50.7"/>
	<text transform="matrix(1 0 0 1 868.39 776.59)" class="st1 st22">Havforskningsinstituttet</text>
	<text transform="matrix(1 0 0 1 860.39 758.16)" class="st1 st22">[6]</text>
</g>
<g>
	<rect x="925.1" y="470.2" class="st0" width="61.1" height="57.1"/>
	<text transform="matrix(1 0 0 1 937.11 497.78)" class="st1 st22">Nasjonal</text>
	<text transform="matrix(1 0 0 1 937.11 503.66)" class="st1 st22">kommunikasjonsmyndighet</text>
	<text transform="matrix(1 0 0 1 929.11 479.12)" class="st1 st22">[6]</text>
</g>
<g>
	<rect x="986.2" y="470.2" class="st11" width="61.1" height="57.1"/>
	<text transform="matrix(1 0 0 1 998.2 497.78)" class="st1 st22">Vestland</text>
	<text transform="matrix(1 0 0 1 998.2 503.66)" class="st1 st22">fylkeskommune</text>
	<text transform="matrix(1 0 0 1 990.2 479.12)" class="st1 st22">[6]</text>
</g>
<g>
	<rect x="1047.3" y="470.2" class="st0" width="50.9" height="57.1"/>
	<text transform="matrix(1 0 0 1 1059.28 497.87)" class="st1 st23">Sikt - kunnskapssektorens</text>
	<text transform="matrix(1 0 0 1 1059.28 503.21)" class="st1 st23">tjenesteleverandør</text>
	<text transform="matrix(1 0 0 1 1051.28 478.67)" class="st1 st23">[5]</text>
</g>
<g>
	<rect x="1098.2" y="470.2" class="st0" width="50.9" height="57.1"/>
	<text transform="matrix(1 0 0 1 1110.1899 497.87)" class="st1 st23">Statsforvaltaren i</text>
	<text transform="matrix(1 0 0 1 1110.1899 503.21)" class="st1 st23">vestland</text>
	<text transform="matrix(1 0 0 1 1102.1899 478.67)" class="st1 st23">[5]</text>
</g>
<g>
	<rect x="1149.1" y="470.2" class="st11" width="50.9" height="57.1"/>
	<text transform="matrix(1 0 0 1 1161.09 497.87)" class="st1 st23">Norsk institutt for</text>
	<text transform="matrix(1 0 0 1 1161.09 503.21)" class="st1 st23">naturforskning</text>
	<text transform="matrix(1 0 0 1 1153.09 478.67)" class="st1 st23">[5]</text>
</g>
<g>
	<rect x="925.1" y="527.3" class="st0" width="51.1" height="45.5"/>
	<text transform="matrix(1 0 0 1 937.11 549.225)" class="st1 st24">Helse-</text>
	<text transform="matrix(1 0 0 1 937.11 554.025)" class="st1 st24">direktoratet</text>
	<text transform="matrix(1 0 0 1 929.11 535.3)" class="st1 st24">[4]</text>
</g>
<g>
	<rect x="925.1" y="572.8" class="st0" width="51.1" height="45.5"/>
	<text transform="matrix(1 0 0 1 937.11 594.675)" class="st1 st24">Direktoratet for utviklingssamarbeid</text>
	<text transform="matrix(1 0 0 1 937.11 599.475)" class="st1 st24">(norad)</text>
	<text transform="matrix(1 0 0 1 929.11 580.75)" class="st1 st24">[4]</text>
</g>
<g>
	<rect x="925.1" y="618.2" class="st0" width="51.1" height="45.5"/>
	<text transform="matrix(1 0 0 1 937.11 642.525)" class="st1 st24">Forsvarsbygg</text>
	<text transform="matrix(1 0 0 1 929.11 626.2)" class="st1 st24">[4]</text>
</g>
<g>
	<rect x="925.1" y="663.7" class="st0" width="51.1" height="45.5"/>
	<text transform="matrix(1 0 0 1 937.11 685.575)" class="st1 st24">Norsk</text>
	<text transform="matrix(1 0 0 1 937.11 690.375)" class="st1 st24">kulturråd</text>
	<text transform="matrix(1 0 0 1 929.11 671.65)" class="st1 st24">[4]</text>
</g>
<g>
	<rect x="925.1" y="709.1" class="st3" width="51.1" height="45.5"/>
	<text transform="matrix(1 0 0 1 937.11 731.025)" class="st1 st24">Aurland</text>
	<text transform="matrix(1 0 0 1 937.11 735.825)" class="st1 st24">kommune</text>
	<text transform="matrix(1 0 0 1 929.11 717.1)" class="st1 st24">[4]</text>
</g>
<g>
	<rect x="925.1" y="754.5" class="st3" width="51.1" height="45.5"/>
	<text transform="matrix(1 0 0 1 937.11 776.475)" class="st1 st24">Sogndal</text>
	<text transform="matrix(1 0 0 1 937.11 781.275)" class="st1 st24">kommune</text>
	<text transform="matrix(1 0 0 1 929.11 762.55)" class="st1 st24">[4]</text>
</g>
<g>
	<rect x="976.2" y="527.3" class="st11" width="52.7" height="44.2"/>
	<text transform="matrix(1 0 0 1 988.25 550.975)" class="st1 st24">Bane NOR SF</text>
	<text transform="matrix(1 0 0 1 980.25 535.3)" class="st1 st24">[4]</text>
</g>
<g>
	<rect x="1028.9" y="527.3" class="st0" width="52.7" height="44.2"/>
	<text transform="matrix(1 0 0 1 1040.9 548.575)" class="st1 st24">Politi- og</text>
	<text transform="matrix(1 0 0 1 1040.9 553.375)" class="st1 st24">lensmannsetaten</text>
	<text transform="matrix(1 0 0 1 1032.9 535.3)" class="st1 st24">[4]</text>
</g>
<g>
	<rect x="1081.6" y="527.3" class="st0" width="39.5" height="44.2"/>
	<text transform="matrix(1 0 0 1 1085.55 535.3)" class="st1 st24">[3]</text>
</g>
<g>
	<rect x="1121" y="527.3" class="st3" width="39.5" height="44.2"/>
	<text transform="matrix(1 0 0 1 1125.03 535.3)" class="st1 st24">[3]</text>
</g>
<g>
	<rect x="1160.5" y="527.3" class="st3" width="39.5" height="44.2"/>
	<text transform="matrix(1 0 0 1 1164.52 535.3)" class="st1 st24">[3]</text>
</g>
<g>
	<rect x="976.2" y="571.5" class="st3" width="44.8" height="39"/>
	<text transform="matrix(1 0 0 1 980.25 579.45)" class="st1 st24">[3]</text>
</g>
<g>
	<rect x="1021" y="571.5" class="st0" width="44.8" height="39"/>
	<text transform="matrix(1 0 0 1 1025 579.45)" class="st1 st24">[3]</text>
</g>
<g>
	<rect x="1065.8" y="571.5" class="st11" width="44.8" height="39"/>
	<text transform="matrix(1 0 0 1 1069.75 579.45)" class="st1 st24">[3]</text>
</g>
<g>
	<rect x="1110.5" y="571.5" class="st11" width="44.8" height="39"/>
	<text transform="matrix(1 0 0 1 1114.5 579.45)" class="st1 st24">[3]</text>
</g>
<g>
	<rect x="1155.2" y="571.5" class="st0" width="44.8" height="39"/>
	<text transform="matrix(1 0 0 1 1159.25 579.45)" class="st1 st24">[3]</text>
</g>
<g>
	<rect x="976.2" y="610.4" class="st0" width="36.8" height="31.6"/>
	<text transform="matrix(1 0 0 1 980.25 618.41)" class="st1 st24">[2]</text>
</g>
<g>
	<rect x="976.2" y="642" class="st11" width="36.8" height="31.6"/>
	<text transform="matrix(1 0 0 1 980.25 650)" class="st1 st24">[2]</text>
</g>
<g>
	<rect x="976.2" y="673.6" class="st0" width="36.8" height="31.6"/>
	<text transform="matrix(1 0 0 1 980.25 681.6)" class="st1 st24">[2]</text>
</g>
<g>
	<rect x="976.2" y="705.2" class="st0" width="36.8" height="31.6"/>
	<text transform="matrix(1 0 0 1 980.25 713.2)" class="st1 st24">[2]</text>
</g>
<g>
	<rect x="976.2" y="736.8" class="st0" width="36.8" height="31.6"/>
	<text transform="matrix(1 0 0 1 980.25 744.8)" class="st1 st24">[2]</text>
</g>
<g>
	<rect x="976.2" y="768.4" class="st0" width="36.8" height="31.6"/>
	<text transform="matrix(1 0 0 1 980.25 776.4)" class="st1 st24">[2]</text>
</g>
<g>
	<rect x="1013" y="610.4" class="st11" width="31.2" height="37.3"/>
	<text transform="matrix(1 0 0 1 1017.03 618.41)" class="st1 st24">[2]</text>
</g>
<g>
	<rect x="1044.2" y="610.4" class="st0" width="31.2" height="37.3"/>
	<text transform="matrix(1 0 0 1 1048.1899 618.41)" class="st1 st24">[2]</text>
</g>
<g>
	<rect x="1075.4" y="610.4" class="st0" width="31.2" height="37.3"/>
	<text transform="matrix(1 0 0 1 1079.36 618.41)" class="st1 st24">[2]</text>
</g>
<g>
	<rect x="1106.5" y="610.4" class="st3" width="31.2" height="37.3"/>
	<text transform="matrix(1 0 0 1 1110.52 618.41)" class="st1 st24">[2]</text>
</g>
<g>
	<rect x="1137.7" y="610.4" class="st0" width="31.2" height="37.3"/>
	<text transform="matrix(1 0 0 1 1141.6801 618.41)" class="st1 st24">[2]</text>
</g>
<g>
	<rect x="1168.8" y="610.4" class="st0" width="31.2" height="37.3"/>
	<text transform="matrix(1 0 0 1 1172.84 618.41)" class="st1 st24">[2]</text>
</g>
<g>
	<rect x="1013" y="647.7" class="st3" width="30.5" height="38.1"/>
	<text transform="matrix(1 0 0 1 1017.03 655.7)" class="st1 st24">[2]</text>
</g>
<g>
	<rect x="1013" y="685.8" class="st11" width="30.5" height="38.1"/>
	<text transform="matrix(1 0 0 1 1017.03 693.78)" class="st1 st24">[2]</text>
</g>
<g>
	<rect x="1013" y="723.8" class="st0" width="30.5" height="38.1"/>
	<text transform="matrix(1 0 0 1 1017.03 731.85)" class="st1 st24">[2]</text>
</g>
<g>
	<rect x="1013" y="761.9" class="st3" width="30.5" height="19"/>
	<text transform="matrix(1 0 0 1 1017.03 769.93)" class="st1 st24">[1]</text>
</g>
<g>
	<rect x="1013" y="781" class="st3" width="30.5" height="19"/>
	<text transform="matrix(1 0 0 1 1017.03 788.96)" class="st1 st24">[1]</text>
</g>
<g>
	<rect x="1043.6" y="647.7" class="st11" width="22.9" height="25.4"/>
	<text transform="matrix(1 0 0 1 1047.5601 655.7)" class="st1 st24">[1]</text>
</g>
<g>
	<rect x="1043.6" y="673.1" class="st3" width="22.9" height="25.4"/>
	<text transform="matrix(1 0 0 1 1047.5601 681.09)" class="st1 st24">[1]</text>
</g>
<g>
	<rect x="1043.6" y="698.5" class="st11" width="22.9" height="25.4"/>
	<text transform="matrix(1 0 0 1 1047.5601 706.47)" class="st1 st24">[1]</text>
</g>
<g>
	<rect x="1043.6" y="723.8" class="st3" width="22.9" height="25.4"/>
	<text transform="matrix(1 0 0 1 1047.5601 731.85)" class="st1 st24">[1]</text>
</g>
<g>
	<rect x="1043.6" y="749.2" class="st11" width="22.9" height="25.4"/>
	<text transform="matrix(1 0 0 1 1047.5601 757.23)" class="st1 st24">[1]</text>
</g>
<g>
	<rect x="1043.6" y="774.6" class="st11" width="22.9" height="25.4"/>
	<text transform="matrix(1 0 0 1 1047.5601 782.62)" class="st1 st24">[1]</text>
</g>
<g>
	<rect x="1066.4" y="647.7" class="st11" width="22.3" height="26.1"/>
	<text transform="matrix(1 0 0 1 1070.45 655.7)" class="st1 st24">[1]</text>
</g>
<g>
	<rect x="1088.7" y="647.7" class="st0" width="22.3" height="26.1"/>
	<text transform="matrix(1 0 0 1 1092.71 655.7)" class="st1 st24">[1]</text>
</g>
<g>
	<rect x="1111" y="647.7" class="st3" width="22.3" height="26.1"/>
	<text transform="matrix(1 0 0 1 1114.97 655.7)" class="st1 st24">[1]</text>
</g>
<g>
	<rect x="1133.2" y="647.7" class="st3" width="22.3" height="26.1"/>
	<text transform="matrix(1 0 0 1 1137.23 655.7)" class="st1 st24">[1]</text>
</g>
<g>
	<rect x="1155.5" y="647.7" class="st0" width="22.3" height="26.1"/>
	<text transform="matrix(1 0 0 1 1159.48 655.7)" class="st1 st24">[1]</text>
</g>
<g>
	<rect x="1177.7" y="647.7" class="st11" width="22.3" height="26.1"/>
	<text transform="matrix(1 0 0 1 1181.74 655.7)" class="st1 st24">[1]</text>
</g>
<g>
	<rect x="1066.4" y="673.8" class="st0" width="23" height="25.2"/>
	<text transform="matrix(1 0 0 1 1070.45 681.81)" class="st1 st24">[1]</text>
</g>
<g>
	<rect x="1066.4" y="699" class="st3" width="23" height="25.2"/>
	<text transform="matrix(1 0 0 1 1070.45 707.05)" class="st1 st24">[1]</text>
</g>
<g>
	<rect x="1066.4" y="724.3" class="st11" width="23" height="25.2"/>
	<text transform="matrix(1 0 0 1 1070.45 732.29)" class="st1 st24">[1]</text>
</g>
<g>
	<rect x="1066.4" y="749.5" class="st3" width="23" height="25.2"/>
	<text transform="matrix(1 0 0 1 1070.45 757.52)" class="st1 st24">[1]</text>
</g>
<g>
	<rect x="1066.4" y="774.8" class="st3" width="23" height="25.2"/>
	<text transform="matrix(1 0 0 1 1070.45 782.76)" class="st1 st24">[1]</text>
</g>
<g>
	<rect x="1089.5" y="673.8" class="st3" width="22.1" height="26.3"/>
	<text transform="matrix(1 0 0 1 1093.48 681.81)" class="st1 st24">[1]</text>
</g>
<g>
	<rect x="1111.6" y="673.8" class="st11" width="22.1" height="26.3"/>
	<text transform="matrix(1 0 0 1 1115.58 681.81)" class="st1 st24">[1]</text>
</g>
<g>
	<rect x="1133.7" y="673.8" class="st11" width="22.1" height="26.3"/>
	<text transform="matrix(1 0 0 1 1137.6899 681.81)" class="st1 st24">[1]</text>
</g>
<g>
	<rect x="1155.8" y="673.8" class="st0" width="22.1" height="26.3"/>
	<text transform="matrix(1 0 0 1 1159.79 681.81)" class="st1 st24">[1]</text>
</g>
<g>
	<rect x="1177.9" y="673.8" class="st3" width="22.1" height="26.3"/>
	<text transform="matrix(1 0 0 1 1181.9 681.81)" class="st1 st24">[1]</text>
</g>
<g>
	<rect x="1089.5" y="700.1" class="st11" width="23.3" height="25"/>
	<text transform="matrix(1 0 0 1 1093.48 708.1)" class="st1 st24">[1]</text>
</g>
<g>
	<rect x="1089.5" y="725.1" class="st0" width="23.3" height="25"/>
	<text transform="matrix(1 0 0 1 1093.48 733.08)" class="st1 st24">[1]</text>
</g>
<g>
	<rect x="1089.5" y="750" class="st11" width="23.3" height="25"/>
	<text transform="matrix(1 0 0 1 1093.48 758.05)" class="st1 st24">[1]</text>
</g>
<g>
	<rect x="1089.5" y="775" class="st3" width="23.3" height="25"/>
	<text transform="matrix(1 0 0 1 1093.48 783.03)" class="st1 st24">[1]</text>
</g>
<g>
	<rect x="1112.8" y="700.1" class="st3" width="21.8" height="26.6"/>
	<text transform="matrix(1 0 0 1 1116.75 708.1)" class="st1 st24">[1]</text>
</g>
<g>
	<rect x="1134.6" y="700.1" class="st0" width="21.8" height="26.6"/>
	<text transform="matrix(1 0 0 1 1138.5601 708.1)" class="st1 st24">[1]</text>
</g>
<g>
	<rect x="1156.4" y="700.1" class="st11" width="21.8" height="26.6"/>
	<text transform="matrix(1 0 0 1 1160.37 708.1)" class="st1 st24">[1]</text>
</g>
<g>
	<rect x="1178.2" y="700.1" class="st11" width="21.8" height="26.6"/>
	<text transform="matrix(1 0 0 1 1182.1899 708.1)" class="st1 st24">[1]</text>
</g>
<g>
	<rect x="1112.8" y="726.7" class="st11" width="23.8" height="24.4"/>
	<text transform="matrix(1 0 0 1 1116.75 734.74)" class="st1 st24">[1]</text>
</g>
<g>
	<rect x="1112.8" y="751.2" class="st0" width="23.8" height="24.4"/>
	<text transform="matrix(1 0 0 1 1116.75 759.16)" class="st1 st24">[1]</text>
</g>
<g>
	<rect x="1112.8" y="775.6" class="st11" width="23.8" height="24.4"/>
	<text transform="matrix(1 0 0 1 1116.75 783.58)" class="st1 st24">[1]</text>
</g>
<g>
	<rect x="1136.5" y="726.7" class="st11" width="21.2" height="27.5"/>
	<text transform="matrix(1 0 0 1 1140.54 734.74)" class="st1 st24">[1]</text>
</g>
<g>
	<rect x="1157.7" y="726.7" class="st11" width="21.2" height="27.5"/>
	<text transform="matrix(1 0 0 1 1161.6899 734.74)" class="st1 st24">[1]</text>
</g>
<g>
	<rect x="1178.8" y="726.7" class="st11" width="21.2" height="27.5"/>
	<text transform="matrix(1 0 0 1 1182.85 734.74)" class="st1 st24">[1]</text>
</g>
<g>
	<rect x="1136.5" y="754.2" class="st0" width="25.4" height="22.9"/>
	<text transform="matrix(1 0 0 1 1140.54 762.21)" class="st1 st24">[1]</text>
</g>
<g>
	<rect x="1136.5" y="777.1" class="st11" width="25.4" height="22.9"/>
	<text transform="matrix(1 0 0 1 1140.54 785.11)" class="st1 st24">[1]</text>
</g>
<g>
	<rect x="1161.9" y="754.2" class="st0" width="19" height="30.5"/>
	<text transform="matrix(1 0 0 1 1165.9301 762.21)" class="st1 st24">[1]</text>
</g>
<g>
	<rect x="1181" y="754.2" class="st11" width="19" height="30.5"/>
	<text transform="matrix(1 0 0 1 1184.96 762.21)" class="st1 st24">[1]</text>
</g>
<g>
	<rect x="1161.9" y="784.7" class="st11" width="38.1" height="15.3"/>
	<text transform="matrix(1 0 0 1 1165.9301 792.74)" class="st1 st24">[1]</text>
</g>
</svg>
