<svg xmlns="http://www.w3.org/2000/svg" xmlns:xlink="http://www.w3.org/1999/xlink" width="1200" height="800">
  <g>
    <rect x="0" y="0" width="283.29" height="578.46" fill="#ceddef" stroke="#ffffff">
    </rect>
    <text x="22" y="298.03000000000003" style="font-size:22px; color:#000000">
      Kartverket
    </text>
    <text x="4" y="26" style="font-size:22px; color:#000000">
      [282]
    </text>
  </g>
  <g>
    <rect x="0" y="578.46" width="283.29" height="221.54" fill="#ceddef" stroke="#ffffff">
    </rect>
    <text x="22" y="684.83" style="font-size:22px; color:#000000">
      Landbruks-
    </text>
    <text x="22" y="711.23" style="font-size:22px; color:#000000">
      direktoratet
    </text>
    <text x="4" y="604.46" style="font-size:22px; color:#000000">
      [108]
    </text>
  </g>
  <g>
    <rect x="283.29" y="0" width="228.63" height="216.05" fill="#ceddef" stroke="#ffffff">
    </rect>
    <text x="305.29" y="103.625" style="font-size:22px; color:#000000">
      Statens
    </text>
    <text x="305.29" y="130.025" style="font-size:22px; color:#000000">
      vegvesen
    </text>
    <text x="287.29" y="26" style="font-size:22px; color:#000000">
      [85]
    </text>
  </g>
  <g>
    <rect x="511.92" y="0" width="217.87" height="216.05" fill="#ceddef" stroke="#ffffff">
    </rect>
    <text x="533.9200000000001" y="103.625" style="font-size:22px; color:#000000">
      Norsk institutt for
    </text>
    <text x="533.9200000000001" y="130.025" style="font-size:22px; color:#000000">
      bioøkonomi
    </text>
    <text x="515.9200000000001" y="26" style="font-size:22px; color:#000000">
      [81]
    </text>
  </g>
  <g>
    <rect x="729.8" y="0" width="196.35" height="216.05" fill="#ceddef" stroke="#ffffff">
    </rect>
    <text x="751.8" y="116.825" style="font-size:22px; color:#000000">
      Nasjonalbiblioteket
    </text>
    <text x="733.8" y="26" style="font-size:22px; color:#000000">
      [73]
    </text>
  </g>
  <g>
    <rect x="283.29" y="216.05" width="180.12" height="225.84" fill="#ceddef" stroke="#ffffff">
    </rect>
    <text x="305.29" y="324.57000000000005" style="font-size:22px; color:#000000">
      Statistisk
    </text>
    <text x="305.29" y="350.97" style="font-size:22px; color:#000000">
      sentralbyrå
    </text>
    <text x="287.29" y="242.05" style="font-size:22px; color:#000000">
      [70]
    </text>
  </g>
  <g>
    <rect x="283.29" y="441.88" width="180.12" height="200.03" fill="#ceddef" stroke="#ffffff">
    </rect>
    <text x="305.29" y="537.495" style="font-size:22px; color:#000000">
      Digitaliserings-
    </text>
    <text x="305.29" y="563.895" style="font-size:22px; color:#000000">
      direktoratet
    </text>
    <text x="287.29" y="467.88" style="font-size:22px; color:#000000">
      [62]
    </text>
  </g>
  <g>
    <rect x="283.29" y="641.91" width="180.12" height="158.09" fill="#ceddef" stroke="#ffffff">
    </rect>
    <text x="305.29" y="716.555" style="font-size:22px; color:#000000">
      Norges vassdrags- og energi-
    </text>
    <text x="305.29" y="742.9549999999999" style="font-size:22px; color:#000000">
      direktorat (nve)
    </text>
    <text x="287.29" y="667.91" style="font-size:22px; color:#000000">
      [49]
    </text>
  </g>
  <g>
    <rect x="463.41" y="216.05" width="174.06" height="136.88" fill="#ceddef" stroke="#ffffff">
    </rect>
    <text x="484.06" y="280.36" style="font-size:20.650000000000002px; color:#000000">
      Miljø-
    </text>
    <text x="484.06" y="305.14" style="font-size:20.650000000000002px; color:#000000">
      direktoratet
    </text>
    <text x="467.41" y="240.70000000000002" style="font-size:20.650000000000002px; color:#000000">
      [41]
    </text>
  </g>
  <g>
    <rect x="637.47" y="216.05" width="157.08" height="136.88" fill="#ceddef" stroke="#ffffff">
    </rect>
    <text x="656.32" y="280.72" style="font-size:18.85px; color:#000000">
      Arbeids- og
    </text>
    <text x="656.32" y="303.34000000000003" style="font-size:18.85px; color:#000000">
      velferdsetaten
    </text>
    <text x="641.47" y="238.9" style="font-size:18.85px; color:#000000">
      [37]
    </text>
  </g>
  <g>
    <rect x="794.55" y="216.05" width="131.6" height="136.88" fill="#ceddef" stroke="#ffffff">
    </rect>
    <text x="810.6999999999999" y="281.26" style="font-size:16.15px; color:#000000">
      Norges geologiske
    </text>
    <text x="810.6999999999999" y="300.64" style="font-size:16.15px; color:#000000">
      undersøkelse
    </text>
    <text x="798.55" y="236.20000000000002" style="font-size:16.15px; color:#000000">
      [31]
    </text>
  </g>
  <g>
    <rect x="463.41" y="352.93" width="124.78" height="116.42" fill="#ceddef" stroke="#ffffff">
    </rect>
    <text x="476.86" y="416.52" style="font-size:13.450000000000001px; color:#000000">
      Tolletaten
    </text>
    <text x="467.41" y="370.38" style="font-size:13.450000000000001px; color:#000000">
      [25]
    </text>
  </g>
  <g>
    <rect x="463.41" y="469.35" width="124.78" height="116.42" fill="#ceddef" stroke="#ffffff">
    </rect>
    <text x="476.86" y="524.8700000000001" style="font-size:13.450000000000001px; color:#000000">
      Olje-
    </text>
    <text x="476.86" y="541.0100000000001" style="font-size:13.450000000000001px; color:#000000">
      direktoratet
    </text>
    <text x="467.41" y="486.8" style="font-size:13.450000000000001px; color:#000000">
      [25]
    </text>
  </g>
  <g>
    <rect x="463.41" y="585.78" width="124.78" height="111.77" fill="#ceddef" stroke="#ffffff">
    </rect>
    <text x="476.41" y="639.0649999999999" style="font-size:13px; color:#000000">
      Registerenheten i
    </text>
    <text x="476.41" y="654.665" style="font-size:13px; color:#000000">
      brønnøysund
    </text>
    <text x="467.41" y="602.78" style="font-size:13px; color:#000000">
      [24]
    </text>
  </g>
  <g>
    <rect x="463.41" y="697.55" width="124.78" height="102.45" fill="#ceddef" stroke="#ffffff">
    </rect>
    <text x="475.51000000000005" y="746.355" style="font-size:12.1px; color:#000000">
      Norsk
    </text>
    <text x="475.51000000000005" y="760.875" style="font-size:12.1px; color:#000000">
      Polarinstitutt
    </text>
    <text x="467.41" y="713.65" style="font-size:12.1px; color:#000000">
      [22]
    </text>
  </g>
  <g>
    <rect x="588.2" y="352.93" width="109.19" height="111.77" fill="#ceddef" stroke="#ffffff">
    </rect>
    <text x="599.85" y="413.47499999999997" style="font-size:11.649999999999999px; color:#000000">
      Mattilsynet
    </text>
    <text x="592.2" y="368.58" style="font-size:11.649999999999999px; color:#000000">
      [21]
    </text>
  </g>
  <g>
    <rect x="697.38" y="352.93" width="77.99" height="111.77" fill="#ceddef" stroke="#ffffff">
    </rect>
    <text x="706.33" y="412.395" style="font-size:8.95px; color:#000000">
      Kystverket
    </text>
    <text x="701.38" y="365.88" style="font-size:8.95px; color:#000000">
      [15]
    </text>
  </g>
  <g>
    <rect x="775.37" y="352.93" width="77.99" height="111.77" fill="#ceddef" stroke="#ffffff">
    </rect>
    <text x="784.32" y="412.395" style="font-size:8.95px; color:#000000">
      Arbeidstilsynet
    </text>
    <text x="779.37" y="365.88" style="font-size:8.95px; color:#000000">
      [15]
    </text>
  </g>
  <g>
    <rect x="853.36" y="352.93" width="72.79" height="111.77" fill="#ceddef" stroke="#ffffff">
    </rect>
    <text x="861.86" y="407.115" style="font-size:8.5px; color:#000000">
      Fiskeri-
    </text>
    <text x="861.86" y="417.315" style="font-size:8.5px; color:#000000">
      direktoratet
    </text>
    <text x="857.36" y="365.43" style="font-size:8.5px; color:#000000">
      [14]
    </text>
  </g>
  <g>
    <rect x="588.2" y="464.7" width="77.99" height="96.87" fill="#ceddef" stroke="#ffffff">
    </rect>
    <text x="596.25" y="511.525" style="font-size:8.05px; color:#000000">
      Meteorologisk
    </text>
    <text x="596.25" y="521.185" style="font-size:8.05px; color:#000000">
      institutt
    </text>
    <text x="592.2" y="476.75" style="font-size:8.05px; color:#000000">
      [13]
    </text>
  </g>
  <g>
    <rect x="588.2" y="561.56" width="77.99" height="89.41" fill="#ceddef" stroke="#ffffff">
    </rect>
    <text x="595.8000000000001" y="609.3050000000001" style="font-size:7.6px; color:#000000">
      Artsdatabanken
    </text>
    <text x="592.2" y="573.16" style="font-size:7.6px; color:#000000">
      [12]
    </text>
  </g>
  <g>
    <rect x="588.2" y="650.98" width="77.99" height="74.51" fill="#ceddef" stroke="#ffffff">
    </rect>
    <text x="594.9000000000001" y="686.8950000000001" style="font-size:6.699999999999999px; color:#000000">
      Direktoratet for samfunnssikkerhet og
    </text>
    <text x="594.9000000000001" y="694.9350000000001" style="font-size:6.699999999999999px; color:#000000">
      beredskap
    </text>
    <text x="592.2" y="661.6800000000001" style="font-size:6.699999999999999px; color:#000000">
      [10]
    </text>
  </g>
  <g>
    <rect x="588.2" y="725.49" width="77.99" height="74.51" fill="#ceddef" stroke="#ffffff">
    </rect>
    <text x="594.9000000000001" y="761.4050000000001" style="font-size:6.699999999999999px; color:#000000">
      Statens lånekasse for
    </text>
    <text x="594.9000000000001" y="769.445" style="font-size:6.699999999999999px; color:#000000">
      utdanning
    </text>
    <text x="592.2" y="736.19" style="font-size:6.699999999999999px; color:#000000">
      [10]
    </text>
  </g>
  <g>
    <rect x="666.19" y="464.7" width="66.85" height="78.24" fill="#ceddef" stroke="#ffffff">
    </rect>
    <text x="672.44" y="502.57" style="font-size:6.25px; color:#000000">
      Direktoratet for høyere utdanning og
    </text>
    <text x="672.44" y="510.07" style="font-size:6.25px; color:#000000">
      kompetanse
    </text>
    <text x="670.19" y="474.95" style="font-size:6.25px; color:#000000">
      [9]
    </text>
  </g>
  <g>
    <rect x="733.03" y="464.7" width="66.85" height="78.24" fill="#ceddef" stroke="#ffffff">
    </rect>
    <text x="739.28" y="506.32" style="font-size:6.25px; color:#000000">
      Folkehelseinstituttet
    </text>
    <text x="737.03" y="474.95" style="font-size:6.25px; color:#000000">
      [9]
    </text>
  </g>
  <g>
    <rect x="799.88" y="464.7" width="66.85" height="78.24" fill="#ceddef" stroke="#ffffff">
    </rect>
    <text x="806.13" y="506.32" style="font-size:6.25px; color:#000000">
      Riksantikvaren
    </text>
    <text x="803.88" y="474.95" style="font-size:6.25px; color:#000000">
      [9]
    </text>
  </g>
  <g>
    <rect x="866.73" y="464.7" width="59.42" height="78.24" fill="#ceddef" stroke="#ffffff">
    </rect>
    <text x="872.53" y="502.66" style="font-size:5.8px; color:#000000">
      Utdannings-
    </text>
    <text x="872.53" y="509.62" style="font-size:5.8px; color:#000000">
      direktoratet
    </text>
    <text x="870.73" y="474.5" style="font-size:5.8px; color:#000000">
      [8]
    </text>
  </g>
  <g>
    <rect x="666.19" y="542.93" width="65.56" height="70.91" fill="#ceddef" stroke="#ffffff">
    </rect>
    <text x="671.99" y="580.7049999999999" style="font-size:5.8px; color:#000000">
      Skatteetaten
    </text>
    <text x="670.19" y="552.7299999999999" style="font-size:5.8px; color:#000000">
      [8]
    </text>
  </g>
  <g>
    <rect x="666.19" y="613.85" width="65.56" height="70.91" fill="#ceddef" stroke="#ffffff">
    </rect>
    <text x="671.99" y="648.145" style="font-size:5.8px; color:#000000">
      Kommunal- og
    </text>
    <text x="671.99" y="655.105" style="font-size:5.8px; color:#000000">
      distriktsdepartementet
    </text>
    <text x="670.19" y="623.65" style="font-size:5.8px; color:#000000">
      [8]
    </text>
  </g>
  <g>
    <rect x="666.19" y="684.76" width="65.56" height="62.05" fill="#ceddef" stroke="#ffffff">
    </rect>
    <text x="671.5400000000001" y="714.715" style="font-size:5.35px; color:#000000">
      Olje-
    </text>
    <text x="671.5400000000001" y="721.135" style="font-size:5.35px; color:#000000">
      og energidepartementet
    </text>
    <text x="670.19" y="694.11" style="font-size:5.35px; color:#000000">
      [7]
    </text>
  </g>
  <g>
    <rect x="666.19" y="746.81" width="65.56" height="53.19" fill="#ceddef" stroke="#ffffff">
    </rect>
    <text x="671.09" y="775.3649999999999" style="font-size:4.9px; color:#000000">
      Arkivverket
    </text>
    <text x="670.19" y="755.7099999999999" style="font-size:4.9px; color:#000000">
      [6]
    </text>
  </g>
  <g>
    <rect x="731.74" y="542.93" width="64.8" height="53.8" fill="#ceddef" stroke="#ffffff">
    </rect>
    <text x="736.64" y="571.7899999999998" style="font-size:4.9px; color:#000000">
      Finansdepartementet
    </text>
    <text x="735.74" y="551.8299999999999" style="font-size:4.9px; color:#000000">
      [6]
    </text>
  </g>
  <g>
    <rect x="796.54" y="542.93" width="64.8" height="53.8" fill="#ceddef" stroke="#ffffff">
    </rect>
    <text x="801.4399999999999" y="571.7899999999998" style="font-size:4.9px; color:#000000">
      Havforskningsinstituttet
    </text>
    <text x="800.54" y="551.8299999999999" style="font-size:4.9px; color:#000000">
      [6]
    </text>
  </g>
  <g>
    <rect x="861.35" y="542.93" width="64.8" height="53.8" fill="#ceddef" stroke="#ffffff">
    </rect>
    <text x="866.25" y="568.8499999999999" style="font-size:4.9px; color:#000000">
      Nasjonal
    </text>
    <text x="866.25" y="574.7299999999999" style="font-size:4.9px; color:#000000">
      kommunikasjonsmyndighet
    </text>
    <text x="865.35" y="551.8299999999999" style="font-size:4.9px; color:#000000">
      [6]
    </text>
  </g>
  <g>
    <rect x="731.74" y="596.74" width="54" height="53.8" fill="#ceddef" stroke="#ffffff">
    </rect>
    <text x="736.19" y="622.75" style="font-size:4.45px; color:#000000">
      Sikt - kunnskapssektorens
    </text>
    <text x="736.19" y="628.09" style="font-size:4.45px; color:#000000">
      tjenesteleverandør
    </text>
    <text x="735.74" y="605.19" style="font-size:4.45px; color:#000000">
      [5]
    </text>
  </g>
  <g>
    <rect x="785.74" y="596.74" width="54" height="53.8" fill="#ceddef" stroke="#ffffff">
    </rect>
    <text x="790.19" y="622.75" style="font-size:4.45px; color:#000000">
      Statsforvaltaren i
    </text>
    <text x="790.19" y="628.09" style="font-size:4.45px; color:#000000">
      vestland
    </text>
    <text x="789.74" y="605.19" style="font-size:4.45px; color:#000000">
      [5]
    </text>
  </g>
  <g>
    <rect x="839.75" y="596.74" width="43.2" height="53.8" fill="#ceddef" stroke="#ffffff">
    </rect>
    <text x="843.75" y="622.84" style="font-size:4px; color:#000000">
      Helse-
    </text>
    <text x="843.75" y="627.64" style="font-size:4px; color:#000000">
      direktoratet
    </text>
    <text x="843.75" y="604.74" style="font-size:4px; color:#000000">
      [4]
    </text>
  </g>
  <g>
    <rect x="882.95" y="596.74" width="43.2" height="53.8" fill="#ceddef" stroke="#ffffff">
    </rect>
    <text x="886.95" y="622.84" style="font-size:4px; color:#000000">
      Direktoratet for utviklingssamarbeid
    </text>
    <text x="886.95" y="627.64" style="font-size:4px; color:#000000">
      (norad)
    </text>
    <text x="886.95" y="604.74" style="font-size:4px; color:#000000">
      [4]
    </text>
  </g>
  <g>
    <rect x="731.74" y="650.54" width="46.66" height="49.82" fill="#ceddef" stroke="#ffffff">
    </rect>
    <text x="735.74" y="677.05" style="font-size:4px; color:#000000">
      Forsvarsbygg
    </text>
    <text x="735.74" y="658.54" style="font-size:4px; color:#000000">
      [4]
    </text>
  </g>
  <g>
    <rect x="731.74" y="700.36" width="46.66" height="49.82" fill="#ceddef" stroke="#ffffff">
    </rect>
    <text x="735.74" y="724.47" style="font-size:4px; color:#000000">
      Norsk
    </text>
    <text x="735.74" y="729.27" style="font-size:4px; color:#000000">
      kulturråd
    </text>
    <text x="735.74" y="708.36" style="font-size:4px; color:#000000">
      [4]
    </text>
  </g>
  <g>
    <rect x="731.74" y="750.18" width="46.66" height="49.82" fill="#ceddef" stroke="#ffffff">
    </rect>
    <text x="735.74" y="774.29" style="font-size:4px; color:#000000">
      Politi- og
    </text>
    <text x="735.74" y="779.0899999999999" style="font-size:4px; color:#000000">
      lensmannsetaten
    </text>
    <text x="735.74" y="758.18" style="font-size:4px; color:#000000">
      [4]
    </text>
  </g>
  <g>
    <rect x="778.4" y="650.54" width="49.25" height="35.4" fill="#ceddef" stroke="#ffffff">
    </rect>
    <text x="782.4" y="658.54" style="font-size:4px; color:#000000">
      [3]
    </text>
  </g>
  <g>
    <rect x="827.65" y="650.54" width="49.25" height="35.4" fill="#ceddef" stroke="#ffffff">
    </rect>
    <text x="831.65" y="658.54" style="font-size:4px; color:#000000">
      [3]
    </text>
  </g>
  <g>
    <rect x="876.9" y="650.54" width="49.25" height="35.4" fill="#ceddef" stroke="#ffffff">
    </rect>
    <text x="880.9" y="658.54" style="font-size:4px; color:#000000">
      [3]
    </text>
  </g>
  <g>
    <rect x="778.4" y="685.94" width="30.57" height="38.02" fill="#ceddef" stroke="#ffffff">
    </rect>
    <text x="782.4" y="693.94" style="font-size:4px; color:#000000">
      [2]
    </text>
  </g>
  <g>
    <rect x="778.4" y="723.96" width="30.57" height="38.02" fill="#ceddef" stroke="#ffffff">
    </rect>
    <text x="782.4" y="731.96" style="font-size:4px; color:#000000">
      [2]
    </text>
  </g>
  <g>
    <rect x="778.4" y="761.98" width="30.57" height="38.02" fill="#ceddef" stroke="#ffffff">
    </rect>
    <text x="782.4" y="769.98" style="font-size:4px; color:#000000">
      [2]
    </text>
  </g>
  <g>
    <rect x="808.97" y="685.94" width="30.57" height="38.02" fill="#ceddef" stroke="#ffffff">
    </rect>
    <text x="812.97" y="693.94" style="font-size:4px; color:#000000">
      [2]
    </text>
  </g>
  <g>
    <rect x="808.97" y="723.96" width="30.57" height="38.02" fill="#ceddef" stroke="#ffffff">
    </rect>
    <text x="812.97" y="731.96" style="font-size:4px; color:#000000">
      [2]
    </text>
  </g>
  <g>
    <rect x="808.97" y="761.98" width="30.57" height="38.02" fill="#ceddef" stroke="#ffffff">
    </rect>
    <text x="812.97" y="769.98" style="font-size:4px; color:#000000">
      [2]
    </text>
  </g>
  <g>
    <rect x="839.54" y="685.94" width="28.87" height="40.26" fill="#ceddef" stroke="#ffffff">
    </rect>
    <text x="843.54" y="693.94" style="font-size:4px; color:#000000">
      [2]
    </text>
  </g>
  <g>
    <rect x="868.41" y="685.94" width="28.87" height="40.26" fill="#ceddef" stroke="#ffffff">
    </rect>
    <text x="872.41" y="693.94" style="font-size:4px; color:#000000">
      [2]
    </text>
  </g>
  <g>
    <rect x="897.28" y="685.94" width="28.87" height="40.26" fill="#ceddef" stroke="#ffffff">
    </rect>
    <text x="901.28" y="693.94" style="font-size:4px; color:#000000">
      [2]
    </text>
  </g>
  <g>
    <rect x="839.54" y="726.2" width="31.5" height="36.9" fill="#ceddef" stroke="#ffffff">
    </rect>
    <text x="843.54" y="734.2" style="font-size:4px; color:#000000">
      [2]
    </text>
  </g>
  <g>
    <rect x="839.54" y="763.1" width="31.5" height="18.45" fill="#ceddef" stroke="#ffffff">
    </rect>
    <text x="843.54" y="771.1" style="font-size:4px; color:#000000">
      [1]
    </text>
  </g>
  <g>
    <rect x="839.54" y="781.55" width="31.5" height="18.45" fill="#ceddef" stroke="#ffffff">
    </rect>
    <text x="843.54" y="789.55" style="font-size:4px; color:#000000">
      [1]
    </text>
  </g>
  <g>
    <rect x="871.03" y="726.2" width="27.56" height="21.09" fill="#ceddef" stroke="#ffffff">
    </rect>
    <text x="875.03" y="734.2" style="font-size:4px; color:#000000">
      [1]
    </text>
  </g>
  <g>
    <rect x="898.59" y="726.2" width="27.56" height="21.09" fill="#ceddef" stroke="#ffffff">
    </rect>
    <text x="902.59" y="734.2" style="font-size:4px; color:#000000">
      [1]
    </text>
  </g>
  <g>
    <rect x="871.03" y="747.28" width="22.05" height="26.36" fill="#ceddef" stroke="#ffffff">
    </rect>
    <text x="875.03" y="755.28" style="font-size:4px; color:#000000">
      [1]
    </text>
  </g>
  <g>
    <rect x="871.03" y="773.64" width="22.05" height="26.36" fill="#ceddef" stroke="#ffffff">
    </rect>
    <text x="875.03" y="781.64" style="font-size:4px; color:#000000">
      [1]
    </text>
  </g>
  <g>
    <rect x="893.08" y="747.28" width="33.07" height="17.57" fill="#ceddef" stroke="#ffffff">
    </rect>
    <text x="897.08" y="755.28" style="font-size:4px; color:#000000">
      [1]
    </text>
  </g>
  <g>
    <rect x="893.08" y="764.86" width="33.07" height="17.57" fill="#ceddef" stroke="#ffffff">
    </rect>
    <text x="897.08" y="772.86" style="font-size:4px; color:#000000">
      [1]
    </text>
  </g>
  <g>
    <rect x="893.08" y="782.43" width="33.07" height="17.57" fill="#ceddef" stroke="#ffffff">
    </rect>
    <text x="897.08" y="790.43" style="font-size:4px; color:#000000">
      [1]
    </text>
  </g>
  <g>
    <rect x="926.15" y="0" width="273.85" height="411.67" fill="#e0cfee" stroke="#ffffff">
    </rect>
    <text x="948.15" y="201.435" style="font-size:22px; color:#000000">
      Stavanger
    </text>
    <text x="948.15" y="227.835" style="font-size:22px; color:#000000">
      kommune
    </text>
    <text x="930.15" y="26" style="font-size:22px; color:#000000">
      [194]
    </text>
  </g>
  <g>
    <rect x="926.15" y="411.67" width="84.02" height="110.66" fill="#e0cfee" stroke="#ffffff">
    </rect>
    <text x="935.55" y="470.76" style="font-size:9.399999999999999px; color:#000000">
      Oslo kommune
    </text>
    <text x="930.15" y="425.07" style="font-size:9.399999999999999px; color:#000000">
      [16]
    </text>
  </g>
  <g>
    <rect x="926.15" y="522.33" width="84.02" height="76.08" fill="#e0cfee" stroke="#ffffff">
    </rect>
    <text x="933.3" y="558.9399999999999" style="font-size:7.15px; color:#000000">
      Fredrikstad
    </text>
    <text x="933.3" y="567.52" style="font-size:7.15px; color:#000000">
      kommune
    </text>
    <text x="930.15" y="533.48" style="font-size:7.15px; color:#000000">
      [11]
    </text>
  </g>
  <g>
    <rect x="1010.17" y="411.67" width="84.02" height="69.16" fill="#e0cfee" stroke="#ffffff">
    </rect>
    <text x="1016.87" y="444.90999999999997" style="font-size:6.699999999999999px; color:#000000">
      Bergen
    </text>
    <text x="1016.87" y="452.95" style="font-size:6.699999999999999px; color:#000000">
      kommune
    </text>
    <text x="1014.17" y="422.37" style="font-size:6.699999999999999px; color:#000000">
      [10]
    </text>
  </g>
  <g>
    <rect x="1010.17" y="480.83" width="84.02" height="62.25" fill="#e0cfee" stroke="#ffffff">
    </rect>
    <text x="1016.42" y="514.4549999999999" style="font-size:6.25px; color:#000000">
      Aure kommune
    </text>
    <text x="1014.17" y="491.08" style="font-size:6.25px; color:#000000">
      [9]
    </text>
  </g>
  <g>
    <rect x="1010.17" y="543.08" width="84.02" height="55.33" fill="#e0cfee" stroke="#ffffff">
    </rect>
    <text x="1015.9699999999999" y="569.5849999999999" style="font-size:5.8px; color:#000000">
      Gjesdal
    </text>
    <text x="1015.9699999999999" y="576.545" style="font-size:5.8px; color:#000000">
      kommune
    </text>
    <text x="1014.17" y="552.88" style="font-size:5.8px; color:#000000">
      [8]
    </text>
  </g>
  <g>
    <rect x="1094.19" y="411.67" width="52.9" height="43.94" fill="#e0cfee" stroke="#ffffff">
    </rect>
    <text x="1098.19" y="432.84" style="font-size:4px; color:#000000">
      Aurland
    </text>
    <text x="1098.19" y="437.64" style="font-size:4px; color:#000000">
      kommune
    </text>
    <text x="1098.19" y="419.67" style="font-size:4px; color:#000000">
      [4]
    </text>
  </g>
  <g>
    <rect x="1147.1" y="411.67" width="52.9" height="43.94" fill="#e0cfee" stroke="#ffffff">
    </rect>
    <text x="1151.1" y="432.84" style="font-size:4px; color:#000000">
      Sogndal
    </text>
    <text x="1151.1" y="437.64" style="font-size:4px; color:#000000">
      kommune
    </text>
    <text x="1151.1" y="419.67" style="font-size:4px; color:#000000">
      [4]
    </text>
  </g>
  <g>
    <rect x="1094.19" y="455.61" width="35.27" height="49.43" fill="#e0cfee" stroke="#ffffff">
    </rect>
    <text x="1098.19" y="463.61" style="font-size:4px; color:#000000">
      [3]
    </text>
  </g>
  <g>
    <rect x="1129.46" y="455.61" width="35.27" height="49.43" fill="#e0cfee" stroke="#ffffff">
    </rect>
    <text x="1133.46" y="463.61" style="font-size:4px; color:#000000">
      [3]
    </text>
  </g>
  <g>
    <rect x="1164.73" y="455.61" width="35.27" height="49.43" fill="#e0cfee" stroke="#ffffff">
    </rect>
    <text x="1168.73" y="463.61" style="font-size:4px; color:#000000">
      [3]
    </text>
  </g>
  <g>
    <rect x="1094.19" y="505.04" width="31.12" height="37.35" fill="#e0cfee" stroke="#ffffff">
    </rect>
    <text x="1098.19" y="513.04" style="font-size:4px; color:#000000">
      [2]
    </text>
  </g>
  <g>
    <rect x="1094.19" y="542.39" width="31.12" height="37.35" fill="#e0cfee" stroke="#ffffff">
    </rect>
    <text x="1098.19" y="550.39" style="font-size:4px; color:#000000">
      [2]
    </text>
  </g>
  <g>
    <rect x="1094.19" y="579.74" width="31.12" height="18.67" fill="#e0cfee" stroke="#ffffff">
    </rect>
    <text x="1098.19" y="587.74" style="font-size:4px; color:#000000">
      [1]
    </text>
  </g>
  <g>
    <rect x="1125.31" y="505.04" width="24.9" height="23.34" fill="#e0cfee" stroke="#ffffff">
    </rect>
    <text x="1129.31" y="513.04" style="font-size:4px; color:#000000">
      [1]
    </text>
  </g>
  <g>
    <rect x="1150.21" y="505.04" width="24.9" height="23.34" fill="#e0cfee" stroke="#ffffff">
    </rect>
    <text x="1154.21" y="513.04" style="font-size:4px; color:#000000">
      [1]
    </text>
  </g>
  <g>
    <rect x="1175.1" y="505.04" width="24.9" height="23.34" fill="#e0cfee" stroke="#ffffff">
    </rect>
    <text x="1179.1" y="513.04" style="font-size:4px; color:#000000">
      [1]
    </text>
  </g>
  <g>
    <rect x="1125.31" y="528.38" width="24.9" height="23.34" fill="#e0cfee" stroke="#ffffff">
    </rect>
    <text x="1129.31" y="536.38" style="font-size:4px; color:#000000">
      [1]
    </text>
  </g>
  <g>
    <rect x="1125.31" y="551.73" width="24.9" height="23.34" fill="#e0cfee" stroke="#ffffff">
    </rect>
    <text x="1129.31" y="559.73" style="font-size:4px; color:#000000">
      [1]
    </text>
  </g>
  <g>
    <rect x="1125.31" y="575.07" width="24.9" height="23.34" fill="#e0cfee" stroke="#ffffff">
    </rect>
    <text x="1129.31" y="583.07" style="font-size:4px; color:#000000">
      [1]
    </text>
  </g>
  <g>
    <rect x="1150.21" y="528.38" width="24.9" height="23.34" fill="#e0cfee" stroke="#ffffff">
    </rect>
    <text x="1154.21" y="536.38" style="font-size:4px; color:#000000">
      [1]
    </text>
  </g>
  <g>
    <rect x="1175.1" y="528.38" width="24.9" height="23.34" fill="#e0cfee" stroke="#ffffff">
    </rect>
    <text x="1179.1" y="536.38" style="font-size:4px; color:#000000">
      [1]
    </text>
  </g>
  <g>
    <rect x="1150.21" y="551.73" width="24.9" height="23.34" fill="#e0cfee" stroke="#ffffff">
    </rect>
    <text x="1154.21" y="559.73" style="font-size:4px; color:#000000">
      [1]
    </text>
  </g>
  <g>
    <rect x="1150.21" y="575.07" width="24.9" height="23.34" fill="#e0cfee" stroke="#ffffff">
    </rect>
    <text x="1154.21" y="583.07" style="font-size:4px; color:#000000">
      [1]
    </text>
  </g>
  <g>
    <rect x="1175.1" y="551.73" width="24.9" height="23.34" fill="#e0cfee" stroke="#ffffff">
    </rect>
    <text x="1179.1" y="559.73" style="font-size:4px; color:#000000">
      [1]
    </text>
  </g>
  <g>
    <rect x="1175.1" y="575.07" width="24.9" height="23.34" fill="#e0cfee" stroke="#ffffff">
    </rect>
    <text x="1179.1" y="583.07" style="font-size:4px; color:#000000">
      [1]
    </text>
  </g>
  <g>
    <rect x="926.15" y="598.41" width="92.24" height="132.29" fill="#f1dcd0" stroke="#ffffff">
    </rect>
    <text x="937.8" y="669.2149999999999" style="font-size:11.649999999999999px; color:#000000">
      Geovekst
    </text>
    <text x="930.15" y="614.06" style="font-size:11.649999999999999px; color:#000000">
      [21]
    </text>
  </g>
  <g>
    <rect x="926.15" y="730.6999999999999" width="92.24" height="69.3" fill="#f1dcd0" stroke="#ffffff">
    </rect>
    <text x="933.3" y="763.9199999999998" style="font-size:7.15px; color:#000000">
      Direktoratet for internasjonalisering og kvalitetsutvikling i høyere utdanning
    </text>
    <text x="933.3" y="772.4999999999999" style="font-size:7.15px; color:#000000">
      (diku)
    </text>
    <text x="930.15" y="741.8499999999999" style="font-size:7.15px; color:#000000">
      [11]
    </text>
  </g>
  <g>
    <rect x="1018.39" y="598.41" width="77.83" height="67.2" fill="#f1dcd0" stroke="#ffffff">
    </rect>
    <text x="1024.6399999999999" y="634.51" style="font-size:6.25px; color:#000000">
      Avinor as
    </text>
    <text x="1022.39" y="608.66" style="font-size:6.25px; color:#000000">
      [9]
    </text>
  </g>
  <g>
    <rect x="1096.23" y="598.41" width="51.89" height="67.2" fill="#f1dcd0" stroke="#ffffff">
    </rect>
    <text x="1101.13" y="633.9699999999999" style="font-size:4.9px; color:#000000">
      Geonorge
    </text>
    <text x="1100.23" y="607.31" style="font-size:4.9px; color:#000000">
      [6]
    </text>
  </g>
  <g>
    <rect x="1148.11" y="598.41" width="51.89" height="67.2" fill="#f1dcd0" stroke="#ffffff">
    </rect>
    <text x="1153.01" y="631.03" style="font-size:4.9px; color:#000000">
      Vestland
    </text>
    <text x="1153.01" y="636.91" style="font-size:4.9px; color:#000000">
      fylkeskommune
    </text>
    <text x="1152.11" y="607.31" style="font-size:4.9px; color:#000000">
      [6]
    </text>
  </g>
  <g>
    <rect x="1018.39" y="665.61" width="51.89" height="56" fill="#f1dcd0" stroke="#ffffff">
    </rect>
    <text x="1022.84" y="692.72" style="font-size:4.45px; color:#000000">
      Norsk institutt for
    </text>
    <text x="1022.84" y="698.0600000000001" style="font-size:4.45px; color:#000000">
      naturforskning
    </text>
    <text x="1022.39" y="674.0600000000001" style="font-size:4.45px; color:#000000">
      [5]
    </text>
  </g>
  <g>
    <rect x="1018.39" y="721.5999999999999" width="51.89" height="44.8" fill="#f1dcd0" stroke="#ffffff">
    </rect>
    <text x="1022.39" y="745.5999999999999" style="font-size:4px; color:#000000">
      Bane NOR SF
    </text>
    <text x="1022.39" y="729.5999999999999" style="font-size:4px; color:#000000">
      [4]
    </text>
  </g>
  <g>
    <rect x="1018.39" y="766.4" width="51.89" height="33.6" fill="#f1dcd0" stroke="#ffffff">
    </rect>
    <text x="1022.39" y="774.4" style="font-size:4px; color:#000000">
      [3]
    </text>
  </g>
  <g>
    <rect x="1070.28" y="665.61" width="43.24" height="40.32" fill="#f1dcd0" stroke="#ffffff">
    </rect>
    <text x="1074.28" y="673.61" style="font-size:4px; color:#000000">
      [3]
    </text>
  </g>
  <g>
    <rect x="1113.52" y="665.61" width="28.83" height="40.32" fill="#f1dcd0" stroke="#ffffff">
    </rect>
    <text x="1117.52" y="673.61" style="font-size:4px; color:#000000">
      [2]
    </text>
  </g>
  <g>
    <rect x="1142.35" y="665.61" width="28.83" height="40.32" fill="#f1dcd0" stroke="#ffffff">
    </rect>
    <text x="1146.35" y="673.61" style="font-size:4px; color:#000000">
      [2]
    </text>
  </g>
  <g>
    <rect x="1171.17" y="665.61" width="28.83" height="40.32" fill="#f1dcd0" stroke="#ffffff">
    </rect>
    <text x="1175.17" y="673.61" style="font-size:4px; color:#000000">
      [2]
    </text>
  </g>
  <g>
    <rect x="1070.28" y="705.92" width="24.71" height="23.52" fill="#f1dcd0" stroke="#ffffff">
    </rect>
    <text x="1074.28" y="713.92" style="font-size:4px; color:#000000">
      [1]
    </text>
  </g>
  <g>
    <rect x="1070.28" y="729.4399999999999" width="24.71" height="23.52" fill="#f1dcd0" stroke="#ffffff">
    </rect>
    <text x="1074.28" y="737.4399999999999" style="font-size:4px; color:#000000">
      [1]
    </text>
  </g>
  <g>
    <rect x="1070.28" y="752.96" width="24.71" height="23.52" fill="#f1dcd0" stroke="#ffffff">
    </rect>
    <text x="1074.28" y="760.96" style="font-size:4px; color:#000000">
      [1]
    </text>
  </g>
  <g>
    <rect x="1070.28" y="776.48" width="24.71" height="23.52" fill="#f1dcd0" stroke="#ffffff">
    </rect>
    <text x="1074.28" y="784.48" style="font-size:4px; color:#000000">
      [1]
    </text>
  </g>
  <g>
    <rect x="1094.99" y="705.92" width="24.71" height="23.52" fill="#f1dcd0" stroke="#ffffff">
    </rect>
    <text x="1098.99" y="713.92" style="font-size:4px; color:#000000">
      [1]
    </text>
  </g>
  <g>
    <rect x="1094.99" y="729.4399999999999" width="24.71" height="23.52" fill="#f1dcd0" stroke="#ffffff">
    </rect>
    <text x="1098.99" y="737.4399999999999" style="font-size:4px; color:#000000">
      [1]
    </text>
  </g>
  <g>
    <rect x="1094.99" y="752.96" width="24.71" height="23.52" fill="#f1dcd0" stroke="#ffffff">
    </rect>
    <text x="1098.99" y="760.96" style="font-size:4px; color:#000000">
      [1]
    </text>
  </g>
  <g>
    <rect x="1094.99" y="776.48" width="24.71" height="23.52" fill="#f1dcd0" stroke="#ffffff">
    </rect>
    <text x="1098.99" y="784.48" style="font-size:4px; color:#000000">
      [1]
    </text>
  </g>
  <g>
    <rect x="1119.7" y="705.92" width="26.77" height="21.71" fill="#f1dcd0" stroke="#ffffff">
    </rect>
    <text x="1123.7" y="713.92" style="font-size:4px; color:#000000">
      [1]
    </text>
  </g>
  <g>
    <rect x="1146.47" y="705.92" width="26.77" height="21.71" fill="#f1dcd0" stroke="#ffffff">
    </rect>
    <text x="1150.47" y="713.92" style="font-size:4px; color:#000000">
      [1]
    </text>
  </g>
  <g>
    <rect x="1173.23" y="705.92" width="26.77" height="21.71" fill="#f1dcd0" stroke="#ffffff">
    </rect>
    <text x="1177.23" y="713.92" style="font-size:4px; color:#000000">
      [1]
    </text>
  </g>
  <g>
    <rect x="1119.7" y="727.63" width="24.09" height="24.12" fill="#f1dcd0" stroke="#ffffff">
    </rect>
    <text x="1123.7" y="735.63" style="font-size:4px; color:#000000">
      [1]
    </text>
  </g>
  <g>
    <rect x="1119.7" y="751.76" width="24.09" height="24.12" fill="#f1dcd0" stroke="#ffffff">
    </rect>
    <text x="1123.7" y="759.76" style="font-size:4px; color:#000000">
      [1]
    </text>
  </g>
  <g>
    <rect x="1119.7" y="775.88" width="24.09" height="24.12" fill="#f1dcd0" stroke="#ffffff">
    </rect>
    <text x="1123.7" y="783.88" style="font-size:4px; color:#000000">
      [1]
    </text>
  </g>
  <g>
    <rect x="1143.79" y="727.63" width="28.11" height="20.68" fill="#f1dcd0" stroke="#ffffff">
    </rect>
    <text x="1147.79" y="735.63" style="font-size:4px; color:#000000">
      [1]
    </text>
  </g>
  <g>
    <rect x="1171.8899999999999" y="727.63" width="28.11" height="20.68" fill="#f1dcd0" stroke="#ffffff">
    </rect>
    <text x="1175.8899999999999" y="735.63" style="font-size:4px; color:#000000">
      [1]
    </text>
  </g>
  <g>
    <rect x="1143.79" y="748.31" width="22.48" height="25.84" fill="#f1dcd0" stroke="#ffffff">
    </rect>
    <text x="1147.79" y="756.31" style="font-size:4px; color:#000000">
      [1]
    </text>
  </g>
  <g>
    <rect x="1143.79" y="774.16" width="22.48" height="25.84" fill="#f1dcd0" stroke="#ffffff">
    </rect>
    <text x="1147.79" y="782.16" style="font-size:4px; color:#000000">
      [1]
    </text>
  </g>
  <g>
    <rect x="1166.27" y="748.31" width="33.73" height="17.23" fill="#f1dcd0" stroke="#ffffff">
    </rect>
    <text x="1170.27" y="756.31" style="font-size:4px; color:#000000">
      [1]
    </text>
  </g>
  <g>
    <rect x="1166.27" y="765.54" width="33.73" height="17.23" fill="#f1dcd0" stroke="#ffffff">
    </rect>
    <text x="1170.27" y="773.54" style="font-size:4px; color:#000000">
      [1]
    </text>
  </g>
  <g>
    <rect x="1166.27" y="782.77" width="33.73" height="17.23" fill="#f1dcd0" stroke="#ffffff">
    </rect>
    <text x="1170.27" y="790.77" style="font-size:4px; color:#000000">
      [1]
    </text>
  </g>
</svg>
